<svg id="Layer_3" enable-background="new 0 0 64 64" height="512" viewBox="0 0 64 64" width="512" xmlns="http://www.w3.org/2000/svg"><g><path d="m2 13h36v36h-36z" fill="#a9adcc"/><path d="m2 41.712c1.466.188 2.968.288 4.5.288 15.74 0 28.5-10.297 28.5-23 0-2.076-.347-4.087-.986-6h-32.014z" fill="#babdd6"/><path d="m38 17h14l10 14v14c0 2.209-1.791 4-4 4h-20z" fill="#3279ea"/><circle cx="14" cy="49" fill="#61668c" r="6"/><circle cx="48" cy="49" fill="#61668c" r="6"/><circle cx="14" cy="49" fill="#8389b2" r="2"/><circle cx="48" cy="49" fill="#8389b2" r="2"/><path d="m44 17v14h18l-10-14z" fill="#e2e7f6"/><g><path d="m43 34h4v2h-4z" fill="#e2e7f6"/></g><path d="m42 14h8v3h-8z" fill="#a9adcc"/><path d="m43 14v-2c0-1.657 1.343-3 3-3 1.657 0 3 1.343 3 3v2z" fill="#d23f34"/><path d="m24 41h10v8h-10z" fill="#e2e7f6"/><path d="m27 26h-4v-4h-6v4h-4v6h4v4h6v-4h4z" fill="#d23f34"/><path d="m56 45v4h2c2.209 0 4-1.791 4-4v-3h-3c-1.657 0-3 1.343-3 3z" fill="#7aadf9"/></g></svg>