<svg id="Layer_1" enable-background="new 0 0 512 512" height="512" viewBox="0 0 512 512" width="512" xmlns="http://www.w3.org/2000/svg"><g><path d="m279.694 98.73c-4.143 0-7.5 3.357-7.5 7.5v94.08c0 4.143 3.357 7.5 7.5 7.5s7.5-3.357 7.5-7.5v-94.08c0-4.142-3.357-7.5-7.5-7.5z" fill="#4380a0"/><g fill="#e4e4e4"><path d="m23.179 287.936h30.905v179.252h-30.905z"/><path d="m457.915 287.936h30.905v179.252h-30.905z"/></g><path d="m240.547 212.137h30.905v403.831h-30.905z" fill="#43809f" transform="matrix(0 1 -1 0 670.052 158.052)"/><path d="m496.547 287.936h-481.094c-8.535 0-15.453-6.919-15.453-15.453 0-8.534 6.918-15.453 15.453-15.453h481.095c8.534 0 15.453 6.918 15.453 15.453-.001 8.534-6.919 15.453-15.454 15.453z" fill="#f3f3f3"/><path d="m363.86 208.433h30.905v66.288h-30.905z" fill="#e8916f" transform="matrix(0 -1 1 0 137.736 620.891)"/><path d="m385.781 226.125c0 17.069 13.837 30.905 30.905 30.905h16.483c17.069 0 30.905-13.837 30.905-30.905 0-17.069-13.837-30.905-30.905-30.905h-16.483c-17.068-.001-30.905 13.836-30.905 30.905z" fill="#ebad88"/><path d="m441.382 257.03h-26.809c-6.229 0-11.279-5.05-11.279-11.279 0-9.701 7.865-17.566 17.566-17.566h.766c5.806 0 10.513-4.707 10.513-10.513v-18.332c0-10.241 8.302-18.543 18.543-18.543 10.241 0 18.543 8.302 18.543 18.543v29.847c0 15.377-12.466 27.843-27.843 27.843z" fill="#d67b42"/><g fill="#43809f"><path d="m496.547 287.936h-481.094c-8.535 0-15.453-6.919-15.453-15.453 0-8.534 6.918-15.453 15.453-15.453h481.095c8.534 0 15.453 6.918 15.453 15.453-.001 8.534-6.919 15.453-15.454 15.453z"/><circle cx="38.632" cy="484.185" r="27.815"/><circle cx="473.368" cy="484.185" r="27.815"/></g><path d="m405.376 0h-125.682c-4.143 0-7.5 3.357-7.5 7.5v27.3c0 4.143 3.357 7.5 7.5 7.5s7.5-3.357 7.5-7.5v-19.8h55.052v218.625c0 4.143 3.357 7.5 7.5 7.5s7.5-3.357 7.5-7.5v-218.625h48.13c4.143 0 7.5-3.357 7.5-7.5s-3.357-7.5-7.5-7.5z" fill="#4380a0"/><path d="m308.539 113.094h-57.69c-2.276 0-4.121-1.845-4.121-4.121v-70.052c0-2.276 1.845-4.121 4.121-4.121h57.69c2.276 0 4.121 1.845 4.121 4.121v70.052c0 2.276-1.845 4.121-4.121 4.121z" fill="#f75632"/><path d="m308.539 34.8h-30.905c2.276 0 4.121 1.845 4.121 4.121v70.052c0 2.276-1.845 4.121-4.121 4.121h30.905c2.276 0 4.121-1.845 4.121-4.121v-70.052c0-2.276-1.845-4.121-4.121-4.121z" fill="#e33629"/><path d="m359.139 354.897h-301.054c-2.209 0-4-1.791-4-4v-139.75c0-13.917 11.282-25.2 25.2-25.2h258.655c13.917 0 25.2 11.282 25.2 25.2v139.75c-.001 2.21-1.792 4-4.001 4z" fill="#e4e4e4"/><path d="m337.939 185.948h-30.905c13.918 0 25.2 11.282 25.2 25.2v143.75h26.905c2.209 0 4-1.791 4-4v-139.75c0-13.918-11.283-25.2-25.2-25.2z" fill="#d2d2d2"/></g></svg>