<?xml version="1.0"?>
<svg xmlns="http://www.w3.org/2000/svg" height="512px" viewBox="0 0 64 64" width="512px" class=""><g><g id="file-medical-coronavirus-healthcare-hospital"><rect fill="#004fac" height="54" rx="4" width="44" x="3" y="7" data-original="#004FAC" class="active-path" style="fill:#FFB229" data-old_color="#004fac"/><path d="m43 11v38h-7a1 1 0 0 0 -1 1v7h-28v-46z" fill="#ffe477" data-original="#FFE477" class="" data-old_color="#ffe477" style="fill:#DAD9D3"/><path d="m35 50v7l8-8h-7a1 1 0 0 0 -1 1z" fill="#ff5023" data-original="#FF5023"/><path d="m34 6v6a2.006 2.006 0 0 1 -2 2h-14a2.006 2.006 0 0 1 -2-2v-6h6a3 3 0 0 1 6 0z" fill="#ee8700" data-original="#EE8700" class=""/><circle cx="25" cy="23" fill="#d80027" r="5" data-original="#D80027" class="" style="fill:#D80027"/><path d="m54 17h6v24h-6z" fill="#006df0" data-original="#006DF0" class=""/><path d="m54 49h6v4h-6z" fill="#005ece" data-original="#005ECE" class=""/><path d="m54 45h6v4h-6z" fill="#006df0" data-original="#006DF0" class=""/><path d="m54 41h6v4h-6z" fill="#57a4ff" data-original="#57A4FF" class=""/><path d="m57.007 61 2.993-8h-6z" fill="#6d6e71" data-original="#6D6E71" class=""/><path d="m58 11h-2a2 2 0 0 0 -2 2v4h6v-4a2 2 0 0 0 -2-2z" fill="#004fac" data-original="#004FAC" class="active-path" style="fill:#FFB229" data-old_color="#004fac"/><path d="m13 32h6v6h-6z" fill="#5eac24" data-original="#5EAC24"/><path d="m13 44h6v6h-6z" fill="#5eac24" data-original="#5EAC24"/><path d="m7 57h28v-7a1 1 0 0 1 1-1h7v-28a36 36 0 0 1 -36 36z" fill="#ffd422" data-original="#FFD422" class=""/><path d="m21.293 30.293-4.293 4.293-1.293-1.293a1 1 0 1 0 -1.414 1.414l2 2a1 1 0 0 0 1.414 0l5-5a1 1 0 0 0 -1.414-1.414z" fill="#d80027" data-original="#D80027" class="" style="fill:#D80027"/><path d="m21.293 42.293-4.293 4.293-1.293-1.293a1 1 0 1 0 -1.414 1.414l2 2a1 1 0 0 0 1.414 0l5-5a1 1 0 0 0 -1.414-1.414z" fill="#d80027" data-original="#D80027" class="" style="fill:#D80027"/><path d="m24 26h2v-2h2v-2h-2v-2h-2v2h-2v2h2z" fill="#f1f2f2" data-original="#F1F2F2" class=""/><g fill="#2488ff"><path d="m24 33a1 1 0 0 0 1 1h12a1 1 0 0 0 0-2h-12a1 1 0 0 0 -1 1z" data-original="#2488FF" class=""/><path d="m37 44h-12a1 1 0 0 0 0 2h12a1 1 0 0 0 0-2z" data-original="#2488FF" class=""/><path d="m31 48h-6a1 1 0 0 0 0 2h6a1 1 0 0 0 0-2z" data-original="#2488FF" class=""/><path d="m37 36h-12a1 1 0 0 0 0 2h12a1 1 0 0 0 0-2z" data-original="#2488FF" class=""/></g><path d="m53 16a3.009 3.009 0 0 0 -3 3v10a1 1 0 0 0 2 0v-10a1 1 0 0 1 1-1h1v-2z" fill="#58595b" data-original="#58595B" class=""/></g></g> </svg>
